<mxfile host="app.diagrams.net" modified="2024-05-25T01:44:37.790Z" agent="Mozilla/5.0 (Windows NT 10.0; Win64; x64; rv:126.0) Gecko/20100101 Firefox/126.0" etag="MCITboB-AlfAKlG-66sL" version="24.4.8" type="github">
  <diagram name="第 1 页" id="o2_Y-MScG5PIU2dUDek-">
    <mxGraphModel dx="1050" dy="530" grid="1" gridSize="10" guides="1" tooltips="1" connect="1" arrows="1" fold="1" page="1" pageScale="1" pageWidth="827" pageHeight="1169" math="0" shadow="0">
      <root>
        <mxCell id="0" />
        <mxCell id="1" parent="0" />
        <mxCell id="GRpIYhLDkiDEH9AqJwoO-5" value="A" style="whiteSpace=wrap;html=1;aspect=fixed;" vertex="1" parent="1">
          <mxGeometry x="330" y="190" width="80" height="80" as="geometry" />
        </mxCell>
        <mxCell id="GRpIYhLDkiDEH9AqJwoO-6" value="B" style="whiteSpace=wrap;html=1;aspect=fixed;" vertex="1" parent="1">
          <mxGeometry x="410" y="190" width="80" height="80" as="geometry" />
        </mxCell>
        <mxCell id="GRpIYhLDkiDEH9AqJwoO-7" value="J" style="whiteSpace=wrap;html=1;aspect=fixed;" vertex="1" parent="1">
          <mxGeometry x="490" y="190" width="80" height="80" as="geometry" />
        </mxCell>
        <mxCell id="GRpIYhLDkiDEH9AqJwoO-8" value="E" style="whiteSpace=wrap;html=1;aspect=fixed;" vertex="1" parent="1">
          <mxGeometry x="570" y="190" width="80" height="80" as="geometry" />
        </mxCell>
        <mxCell id="GRpIYhLDkiDEH9AqJwoO-10" value="下标：" style="text;html=1;align=center;verticalAlign=middle;resizable=0;points=[];autosize=1;strokeColor=none;fillColor=none;" vertex="1" parent="1">
          <mxGeometry x="270" y="278" width="60" height="30" as="geometry" />
        </mxCell>
        <mxCell id="GRpIYhLDkiDEH9AqJwoO-11" value="0" style="text;html=1;align=center;verticalAlign=middle;resizable=0;points=[];autosize=1;strokeColor=none;fillColor=none;" vertex="1" parent="1">
          <mxGeometry x="355" y="278" width="30" height="30" as="geometry" />
        </mxCell>
        <mxCell id="GRpIYhLDkiDEH9AqJwoO-12" value="1" style="text;html=1;align=center;verticalAlign=middle;resizable=0;points=[];autosize=1;strokeColor=none;fillColor=none;" vertex="1" parent="1">
          <mxGeometry x="435" y="278" width="30" height="30" as="geometry" />
        </mxCell>
        <mxCell id="GRpIYhLDkiDEH9AqJwoO-13" value="2" style="text;html=1;align=center;verticalAlign=middle;resizable=0;points=[];autosize=1;strokeColor=none;fillColor=none;" vertex="1" parent="1">
          <mxGeometry x="525" y="278" width="30" height="30" as="geometry" />
        </mxCell>
        <mxCell id="GRpIYhLDkiDEH9AqJwoO-14" value="3" style="text;html=1;align=center;verticalAlign=middle;resizable=0;points=[];autosize=1;strokeColor=none;fillColor=none;" vertex="1" parent="1">
          <mxGeometry x="610" y="278" width="30" height="30" as="geometry" />
        </mxCell>
        <mxCell id="GRpIYhLDkiDEH9AqJwoO-15" value="值" style="text;html=1;align=center;verticalAlign=middle;resizable=0;points=[];autosize=1;strokeColor=none;fillColor=none;" vertex="1" parent="1">
          <mxGeometry x="280" y="218" width="40" height="30" as="geometry" />
        </mxCell>
        <mxCell id="GRpIYhLDkiDEH9AqJwoO-16" value="内存地址" style="text;html=1;align=center;verticalAlign=middle;resizable=0;points=[];autosize=1;strokeColor=none;fillColor=none;" vertex="1" parent="1">
          <mxGeometry x="265" y="158" width="70" height="30" as="geometry" />
        </mxCell>
        <mxCell id="GRpIYhLDkiDEH9AqJwoO-17" value="101" style="text;html=1;align=center;verticalAlign=middle;resizable=0;points=[];autosize=1;strokeColor=none;fillColor=none;" vertex="1" parent="1">
          <mxGeometry x="340" y="158" width="40" height="30" as="geometry" />
        </mxCell>
        <mxCell id="GRpIYhLDkiDEH9AqJwoO-20" value="102" style="text;html=1;align=center;verticalAlign=middle;resizable=0;points=[];autosize=1;strokeColor=none;fillColor=none;" vertex="1" parent="1">
          <mxGeometry x="430" y="158" width="40" height="30" as="geometry" />
        </mxCell>
        <mxCell id="GRpIYhLDkiDEH9AqJwoO-21" value="103" style="text;html=1;align=center;verticalAlign=middle;resizable=0;points=[];autosize=1;strokeColor=none;fillColor=none;" vertex="1" parent="1">
          <mxGeometry x="515" y="160" width="40" height="30" as="geometry" />
        </mxCell>
        <mxCell id="GRpIYhLDkiDEH9AqJwoO-22" value="104" style="text;html=1;align=center;verticalAlign=middle;resizable=0;points=[];autosize=1;strokeColor=none;fillColor=none;" vertex="1" parent="1">
          <mxGeometry x="590" y="160" width="40" height="30" as="geometry" />
        </mxCell>
      </root>
    </mxGraphModel>
  </diagram>
</mxfile>
